<?xml version="1.0" standalone="no"?>
<!DOCTYPE svg PUBLIC "-//W3C//DTD SVG 20010904//EN"
 "http://www.w3.org/TR/2001/REC-SVG-20010904/DTD/svg10.dtd">
<svg version="1.0" xmlns="http://www.w3.org/2000/svg"
 width="96.000000pt" height="105.000000pt" viewBox="0 0 96.000000 105.000000"
 preserveAspectRatio="xMidYMid meet">

<g transform="translate(0.000000,105.000000) scale(0.100000,-0.100000)"
fill="#000000" stroke="none">
<path d="M253 1042 c-6 -4 -13 -20 -15 -37 -2 -25 -8 -31 -38 -36 -84 -13
-157 -73 -181 -146 -17 -53 -24 -505 -9 -576 15 -75 54 -130 114 -164 50 -28
53 -28 266 -33 187 -4 220 -7 250 -24 23 -13 56 -20 95 -20 159 -2 260 157
197 310 -19 43 -21 74 -24 264 -4 201 -5 218 -27 262 -38 77 -90 114 -186 130
-14 2 -21 12 -23 35 -5 54 -62 51 -62 -3 l0 -24 -155 0 -155 0 0 23 c0 21 -16
47 -29 47 -4 0 -11 -4 -18 -8z m-13 -161 c0 -32 24 -48 46 -30 8 6 14 22 14
35 l0 24 155 0 155 0 0 -24 c0 -13 6 -29 14 -35 22 -18 46 -2 46 30 0 36 23
38 80 9 50 -25 81 -71 88 -126 l5 -44 -387 0 -386 0 0 30 c0 76 75 157 148
159 18 1 22 -4 22 -28z m600 -347 c0 -107 -1 -116 -17 -109 -36 14 -109 17
-149 6 -56 -15 -119 -72 -139 -126 -18 -45 -17 -137 0 -179 8 -18 1 -18 -166
-14 -185 4 -210 10 -256 60 -38 41 -43 72 -43 279 l0 199 385 0 385 0 0 -116z
m-26 -182 c70 -40 96 -130 57 -199 -35 -60 -66 -78 -136 -78 -69 0 -101 18
-134 76 -76 134 77 278 213 201z"/>
<path d="M262 508 c-20 -20 -15 -58 11 -67 35 -14 59 5 55 42 -2 26 -8 33 -28
35 -14 2 -31 -3 -38 -10z"/>
<path d="M420 505 c-16 -19 -9 -45 16 -62 19 -12 24 -11 45 6 21 16 22 22 11
45 -13 29 -52 36 -72 11z"/>
<path d="M268 349 c-21 -12 -24 -49 -6 -67 19 -19 45 -14 62 10 13 19 14 25 2
43 -16 24 -35 28 -58 14z"/>
<path d="M712 308 c-7 -7 -12 -22 -12 -35 0 -18 -6 -23 -24 -23 -13 0 -29 -6
-35 -14 -18 -22 -2 -46 30 -46 22 0 29 -5 29 -19 0 -34 12 -51 35 -51 23 0 35
17 35 51 0 14 7 19 29 19 32 0 48 24 30 46 -6 8 -22 14 -35 14 -18 0 -24 5
-24 23 0 24 -17 47 -35 47 -6 0 -16 -5 -23 -12z"/>
</g>
</svg>
